<?xml version="1.0" encoding="utf-8"?>
<!-- Generator: Adobe Illustrator 23.0.2, SVG Export Plug-In . SVG Version: 6.00 Build 0)  -->
<svg version="1.1" id="Layer_1" xmlns="http://www.w3.org/2000/svg" xmlns:xlink="http://www.w3.org/1999/xlink" x="0px" y="0px"
	 viewBox="0 0 224.1021 236.0281" enable-background="new 0 0 224.1021 236.0281" xml:space="preserve">
<g>
	<path d="M13.1717,40.6433c9.0654,12.1118,20.5971,18.9414,29.7441,22.7637c2.895,1.206,5.563,2.1191,7.877,2.8076l-9.2837,63.0293
		L4.9427,208.3337c-2.9922,6.4727-0.17,14.1441,6.3007,17.1353c6.4717,2.9927,14.1446,0.1728,17.1368-6.2998l35.8002-77.4351
		l7.0904,1.0445v80.3398c0,7.1309,5.7793,12.9097,12.9101,12.9097c7.1289,0,12.9102-5.7788,12.9102-12.9097v-83.9053
		c0.0615-0.25,0.1143-0.5049,0.1523-0.7651l9.9117-67.2832c0.2177-0.2944,0.5527-0.731,0.9975-1.2769
		c0.6372-0.7822,1.5064-1.7881,2.585-2.9189c-0.9121-0.8364-2.0415-1.8106-3.4224-2.9107c-0.416-0.331-0.8467-0.6699-1.3091-1.0234
		c-0.789-0.604-1.5869-1.1694-2.3891-1.7119c-1.1358-0.7681-2.2827-1.4815-3.4439-2.1265
		c-1.9741,1.3877-4.1469,2.4956-6.4721,3.2803c-0.7886,0.2661-1.5948,0.4961-2.4165,0.6875
		c-1.9082,0.4453-3.8594,0.6709-5.8008,0.6709c-6.9478,0-13.3018-2.7773-17.9366-7.3862c-0.0043,0.0014-0.0087,0.0029-0.0126,0.0044
		c-2.7295,0.894-5.5064,2.0493-8.3516,3.479c-1.4102,0.7119-2.9219,1.0722-4.4902,1.0722c-1.0616,0-2.087-0.1797-3.0601-0.4907
		c-2.5151-0.8027-4.645-2.5669-5.8774-5.0142c-1.2032-2.3837-1.4043-5.0947-0.5684-7.6318c0.0957-0.291,0.2075-0.5742,0.3276-0.8525
		c-1.6894-0.8325-3.4248-1.7769-5.1689-2.8706c-5.1841-3.2378-10.417-7.6402-14.7847-13.6592
		c-4.3628-6.0313-7.9258-13.69-9.6758-23.8355c-0.747-4.3549-4.8818-7.2807-9.2368-6.5337C2.2932,0.864-0.6306,4.9983,0.1165,9.3538
		C2.3094,22.2126,7.136,32.5886,13.1717,40.6433z"/>
	<path d="M178.347,55.4997c-1.2325,2.4473-3.3633,4.212-5.878,5.0147c-0.9736,0.3105-1.998,0.4902-3.0595,0.4902
		c-1.5684,0-3.0811-0.3603-4.4903-1.0722c-2.8457-1.4297-5.6221-2.585-8.3525-3.479c-0.0039-0.0015-0.0078-0.003-0.0117-0.0044
		c-4.6348,4.6089-10.9883,7.3862-17.9356,7.3862c-1.9424,0-3.8945-0.2256-5.8017-0.6709c-0.8213-0.1914-1.628-0.4214-2.417-0.6875
		c-2.3252-0.7847-4.4981-1.8921-6.4727-3.2803c-0.2519-0.1772-0.498-0.3613-0.7441-0.5473
		c-0.3301-0.251-0.6534-0.5098-0.9717-0.7769c-0.2481-0.209-0.4932-0.4224-0.7334-0.6411
		c-1.7295-1.5713-3.2549-3.3867-4.5234-5.4248c-0.9463-1.521-1.7168-3.1162-2.3179-4.7598
		c-0.8262-0.5796-1.6929-1.1518-2.5864-1.7168c-0.5699-0.3608-1.1514-0.7168-1.7486-1.0683
		c-0.2256,0.9414-0.5034,1.8711-0.8379,2.7856c-0.6006,1.6436-1.3711,3.2388-2.3169,4.7593
		c-1.269,2.0381-2.7954,3.8535-4.5249,5.4248c-0.2407,0.2187-0.4853,0.4321-0.7339,0.6411
		c0.3238,0.1875,0.6387,0.3804,0.9541,0.5728c1.5655,0.9575,3.0298,1.9682,4.379,3c1.8501,1.416,3.4628,2.8564,4.8286,4.1928
		c0.4692,0.459,0.9048,0.9029,1.3134,1.3311c1.0787,1.1308,1.9478,2.1372,2.5855,2.9194c0.4448,0.5459,0.7798,0.9824,0.9976,1.2764
		l9.9106,67.2832c0.0391,0.2617,0.0908,0.5176,0.1533,0.7695v83.9009c0,7.1309,5.7813,12.9097,12.9102,12.9097
		c7.1299,0,12.9101-5.7788,12.9101-12.9097v-80.3398l7.0908-1.0445l35.8008,77.4351c2.9922,6.4726,10.6651,9.2925,17.1367,6.2998
		c6.4708-2.9912,9.292-10.6626,6.2999-17.1353l-36.5684-79.0957l-9.2822-63.0219c4.7597-1.4151,11.0166-3.7876,17.6386-7.7183
		c6.7862-4.0454,13.9522-9.7861,19.9825-17.856c6.0341-8.0547,10.8603-18.4297,13.0556-31.2895
		c0.7471-4.355-2.1787-8.4898-6.5342-9.2349c-4.3554-0.7466-8.4902,2.1768-9.2373,6.5322
		c-1.8056,10.4727-5.541,18.2964-10.0996,24.4141c-5.7529,7.707-12.997,12.7261-19.5283,15.9492
		c0.1201,0.2788,0.2315,0.563,0.3281,0.855C179.7503,50.405,179.5501,53.116,178.347,55.4997z"/>
	<path d="M159.2151,53.3376c-0.1006,0.1392-0.1914,0.2871-0.2949,0.4239c-0.2813,0.372-0.584,0.7241-0.8838,1.0786
		c2.4815,0.8564,5.0723,1.9438,7.7822,3.3056c2.0332,1.0249,4.293,1.0938,6.2803,0.3858c1.8701-0.666,3.499-2.0186,4.4629-3.9317
		c1.1025-2.1865,1.1016-4.6377,0.2139-6.728c-0.7139-1.6806-2-3.1289-3.7578-4.0141c-3.0469-1.5381-6.045-2.814-8.9893-3.8653
		c-0.0898,1.3692-0.2861,2.7481-0.6074,4.127C162.6253,47.5388,161.1643,50.6433,159.2151,53.3376z"/>
	<path d="M47.5403,54.5998c0.9629,1.9131,2.5918,3.2662,4.4619,3.9317c1.9873,0.7075,4.2476,0.6391,6.2803-0.3858
		c2.71-1.3618,5.3008-2.4492,7.7827-3.3056c-0.2988-0.3535-0.6011-0.7041-0.8808-1.0747c-0.1045-0.1382-0.1963-0.2871-0.2979-0.4278
		c-1.9492-2.6943-3.4097-5.7988-4.2056-9.2182c-0.3213-1.3789-0.518-2.7578-0.6079-4.127
		c-2.9443,1.0513-5.9428,2.3272-8.9897,3.8653c-1.7578,0.8857-3.0435,2.3335-3.7569,4.0146
		C46.4388,49.9626,46.4383,52.4138,47.5403,54.5998z"/>
	<path d="M116.3225,45.7976c0.4336,1.2915,0.9795,2.5391,1.626,3.731c1.0098,1.8618,2.2686,3.583,3.7432,5.1147
		c0.7529,0.7822,1.5615,1.5146,2.4228,2.1904c0.5918,0.4639,1.208,0.9009,1.8467,1.3086c0.041,0.0259,0.082,0.0503,0.1221,0.0757
		c0.5986,0.3765,1.2148,0.7285,1.8515,1.0523c1.6582,0.8432,3.4424,1.5058,5.336,1.9467
		c7.7705,1.8096,15.5351-0.4712,21.0488-5.4311c0.5674-0.5113,1.1113-1.0498,1.6289-1.6162
		c0.1221-0.1338,0.2442-0.2676,0.3633-0.4043c2.4443-2.8028,4.2598-6.2246,5.1621-10.0991
		c0.3389-1.4532,0.5274-2.9058,0.5889-4.3443c0.0312-0.7075,0.0283-1.4106-0.0049-2.1094
		c-0.4863-10.2285-7.668-19.3139-18.1328-21.7505c-12.6348-2.9423-25.2627,4.9156-28.2061,17.5499
		c-0.6401,2.749-0.768,5.4975-0.4477,8.1459c0.0844,0.6983,0.2036,1.3887,0.3491,2.0713
		C115.8064,44.1008,116.0403,44.9582,116.3225,45.7976z"/>
	<path d="M62.6282,43.6663c0.9019,3.8745,2.7178,7.2968,5.1621,10.0991c0.1192,0.1367,0.2407,0.2705,0.3628,0.4043
		c0.5176,0.5664,1.061,1.1049,1.6289,1.6162c5.5137,4.9599,13.2783,7.2407,21.0493,5.4311c1.8936-0.4409,3.6773-1.1035,5.336-1.9467
		c0.6367-0.3238,1.2529-0.6758,1.8506-1.0523c0.041-0.0254,0.082-0.0498,0.122-0.0757c0.6397-0.4077,1.2554-0.8447,1.8467-1.3086
		c0.8613-0.6758,1.6699-1.4082,2.4229-2.1904c1.4741-1.5312,2.7329-3.252,3.7421-5.1128c0.6475-1.1929,1.1934-2.4409,1.6275-3.7334
		c0.2822-0.8393,0.5161-1.6968,0.7021-2.5683c0.1455-0.6827,0.2647-1.3726,0.3492-2.0709c0.3203-2.6484,0.1923-5.3969-0.4483-8.1459
		c-2.9414-12.6343-15.5703-20.4922-28.2051-17.5499c-10.4648,2.4366-17.6469,11.522-18.1328,21.7505
		c-0.0332,0.6983-0.0361,1.4019-0.0058,2.1094C62.1004,40.7605,62.2898,42.2131,62.6282,43.6663z"/>
</g>
</svg>
