<svg xmlns="http://www.w3.org/2000/svg" enable-background="new 0 0 32 32" viewBox="0 0 32 32"><path d="M7.3858 24.39282c.36609.40771.89111.64142 1.44025.64142.47913 0 .93939-.17694 1.29553-.49762.7937-.71423.85803-1.94214.1438-2.73676l-5.22046-5.79993 5.22046-5.80078c.71423-.7937.6499-2.02161-.1438-2.73584V7.46234C9.73706 7.11615 9.23755 6.93732 8.72388 6.96857 8.20642 6.99597 7.73151 7.22211 7.3858 7.60614l-6.38739 7.09784c-.66455.73877-.66455 1.85315 0 2.59296L7.3858 24.39282zM24.6142 7.60614c-.71417-.79272-1.94067-.85797-2.73578-.14282-.7937.71423-.85803 1.94214-.1438 2.73676l5.22046 5.79987-5.22046 5.80084c-.71423.7937-.6499 2.02161.1438 2.73682.35614.3197.81641.49664 1.29553.49664.54913 0 1.07416-.2337 1.44025-.64044l6.38739-7.09784c.66455-.73883.66455-1.85321 0-2.59198L24.6142 7.60614zM19.39423 2.17615l-.00189-.00092c-1.03821-.25165-2.08783.3869-2.34131 1.42084l-5.86426 23.88446c-.25494 1.03687.38171 2.08783 1.41992 2.34326.15094.03687.30652.05579.46216.05579.89398 0 1.6673-.60638 1.88013-1.47571l5.86426-23.88446C21.06818 3.48254 20.43152 2.43158 19.39423 2.17615z"/></svg>