<?xml version="1.0" encoding="utf-8"?><svg xmlns="http://www.w3.org/2000/svg" width="65" height="85" preserveAspectRatio="xMidYMid" xmlns:xlink="http://www.w3.org/1999/xlink" style="display:block;animation-play-state:paused" ><style type="text/css" style="animation-play-state:paused" >text {
    text-anchor: middle; font-size: 80px; opacity: 0;
  }</style>


<g style="transform-origin:50px 50px;transform:matrix(1, 0, 0, 1, 0, 0);animation-play-state:paused" ><g transform="translate(50,50)" style="animation-play-state:paused" ><g transform="translate(0,0)" style="animation-play-state:paused" ><g class="path" style="transform-origin:-20.535px 1.54617px;animation-timing-function:linear;animation-play-state:paused;animation-name:static-a2615246-4f1b-4380-aefc-c61c1e5ee398;animation-iteration-count:infinite;animation-fill-mode:forwards;animation-duration:1s;animation-delay:-0.33s" ><path d="M6-14.80L6-14.80L6.16-30.96L6.16-30.96Q6.16-49.92 4.32-52.40L4.32-52.40L4.32-52.40Q3.44-53.52 3.44-53.96L3.44-53.96L3.44-53.96Q3.44-54.40 4.52-55L4.52-55L4.52-55Q5.60-55.60 8.72-56.32L8.72-56.32L8.72-56.32Q11.84-57.04 14.24-57.04L14.24-57.04L14.24-57.04Q16.64-57.04 16.64-55.92L16.64-55.92L16.48-54.88L16.48-54.88Q15.52-46.24 15.52-38L15.52-38L15.52-38Q15.52-29.76 16-19.60L16-19.60L16-19.60Q16.48-9.44 16.48-4.64L16.48-4.64L16.48-4.64Q16.48 1.84 11.48 6.52L11.48 6.52L11.48 6.52Q6.48 11.20-0.40 11.60L-0.40 11.60L-0.40 11.60Q-1.76 11.44-1.76 10.64L-1.76 10.64L-1.76 10.64Q-1.76 10.08-1.40 9.76L-1.40 9.76L-1.40 9.76Q-1.04 9.44-0.56 8.96L-0.56 8.96L-0.56 8.96Q-0.08 8.48 1.20 6.48L1.20 6.48L1.20 6.48Q2.48 4.48 3.44 1.96L3.44 1.96L3.44 1.96Q4.40-0.56 5.20-5.04L5.20-5.04L5.20-5.04Q6-9.52 6-14.80" fill="#9e3ea7" stroke="none" stroke-width="none" transform="translate(-27.974998474121094,24.266168212890626)" style="fill:rgb(158, 62, 167);animation-play-state:paused" ></path></g>
<g class="path" style="transform-origin:9.105px -3.13383px;animation-timing-function:linear;animation-play-state:paused;animation-name:static-a2615246-4f1b-4380-aefc-c61c1e5ee398;animation-iteration-count:infinite;animation-fill-mode:forwards;animation-duration:1s" ><path d="M25.52-14.40L25.52-14.40L26-28.56L20.64-28.56L20.64-28.56Q20-28.56 20-29.04L20-29.04L20-29.04Q20-30.48 21.36-32.36L21.36-32.36L21.36-32.36Q22.72-34.24 24.32-34.24L24.32-34.24L26-34.24L26-34.24Q25.84-40.48 25.68-43.20L25.68-43.20L25.68-43.20Q25.36-48.08 24.08-50.72L24.08-50.72L23.68-51.52L23.68-51.52Q23.36-51.92 23.36-52.48L23.36-52.48L23.36-52.48Q23.36-53.04 24.24-53.44L24.24-53.44L24.24-53.44Q25.12-53.84 26.84-54.40L26.84-54.40L26.84-54.40Q28.56-54.96 34.16-55.88L34.16-55.88L34.16-55.88Q39.76-56.80 46.36-56.80L46.36-56.80L46.36-56.80Q52.96-56.80 53.56-55.84L53.56-55.84L53.56-55.84Q54.16-54.88 54.16-52.84L54.16-52.84L54.16-52.84Q54.16-50.80 53.60-50.80L53.60-50.80L53.60-50.80Q53.52-50.80 53.04-50.88L53.04-50.88L53.04-50.88Q51.76-51.20 49.12-51.20L49.12-51.20L49.12-51.20Q46.48-51.20 43.44-50.72L43.44-50.72L43.44-50.72Q40.40-50.24 38.80-49.76L38.80-49.76L37.28-49.20L37.28-49.20Q36.64-49.04 36.32-48.08L36.32-48.08L36.32-48.08Q35.68-43.36 35.68-34.24L35.68-34.24L48.64-34.24L48.64-34.24Q49.36-34.24 49.36-33.76L49.36-33.76L49.36-33.76Q49.36-32.32 48.08-30.40L48.08-30.40L48.08-30.40Q46.80-28.48 45.20-28.48L45.20-28.48L35.68-28.56L36.24-4.56L36.24-4.56Q36.24-2.80 35.68-2L35.68-2L35.68-2Q34.16 0 30.52 1L30.52 1L30.52 1Q26.88 2 24.48 2L24.48 2L24.48 2Q23.84 2 23.84 1.20L23.84 1.20L23.84 1.20Q23.84 0.80 23.92 0.56L23.92 0.56L23.92 0.56Q24.88-0.80 25.52-14.40" fill="#9e3ea7" stroke="none" stroke-width="none" transform="translate(-27.974998474121094,24.266168212890626)" style="fill:rgb(158, 62, 167);animation-play-state:paused" ></path></g></g></g></g></svg>